<mxfile host="app.diagrams.net" agent="Mozilla/5.0 (Macintosh; Intel Mac OS X 10_15_7) AppleWebKit/605.1.15 (KHTML, like Gecko) Version/18.1 Safari/605.1.15" version="24.7.17">
  <diagram id="C5RBs43oDa-KdzZeNtuy" name="Page-1">
    <mxGraphModel dx="3027" dy="924" grid="1" gridSize="10" guides="1" tooltips="1" connect="1" arrows="1" fold="1" page="1" pageScale="1" pageWidth="827" pageHeight="1169" math="0" shadow="0">
      <root>
        <mxCell id="WIyWlLk6GJQsqaUBKTNV-0" />
        <mxCell id="WIyWlLk6GJQsqaUBKTNV-1" parent="WIyWlLk6GJQsqaUBKTNV-0" />
        <mxCell id="WIyWlLk6GJQsqaUBKTNV-2" value="" style="rounded=0;html=1;jettySize=auto;orthogonalLoop=1;fontSize=11;endArrow=block;endFill=0;endSize=8;strokeWidth=1;shadow=0;labelBackgroundColor=none;edgeStyle=orthogonalEdgeStyle;" parent="WIyWlLk6GJQsqaUBKTNV-1" source="WIyWlLk6GJQsqaUBKTNV-3" target="WIyWlLk6GJQsqaUBKTNV-6" edge="1">
          <mxGeometry relative="1" as="geometry" />
        </mxCell>
        <mxCell id="WIyWlLk6GJQsqaUBKTNV-3" value="&lt;div&gt;User&lt;/div&gt;" style="rounded=1;whiteSpace=wrap;html=1;fontSize=12;glass=0;strokeWidth=1;shadow=0;" parent="WIyWlLk6GJQsqaUBKTNV-1" vertex="1">
          <mxGeometry x="320" y="40" width="120" height="40" as="geometry" />
        </mxCell>
        <mxCell id="rhJvBl-y4j_txT4zSDau-1" style="edgeStyle=orthogonalEdgeStyle;rounded=0;orthogonalLoop=1;jettySize=auto;html=1;exitX=0;exitY=0.5;exitDx=0;exitDy=0;entryX=0.5;entryY=0;entryDx=0;entryDy=0;" parent="WIyWlLk6GJQsqaUBKTNV-1" source="WIyWlLk6GJQsqaUBKTNV-6" target="rhJvBl-y4j_txT4zSDau-0" edge="1">
          <mxGeometry relative="1" as="geometry" />
        </mxCell>
        <mxCell id="rhJvBl-y4j_txT4zSDau-2" value="&lt;div&gt;No&lt;/div&gt;" style="edgeLabel;html=1;align=center;verticalAlign=middle;resizable=0;points=[];" parent="rhJvBl-y4j_txT4zSDau-1" vertex="1" connectable="0">
          <mxGeometry x="0.1613" y="-1" relative="1" as="geometry">
            <mxPoint as="offset" />
          </mxGeometry>
        </mxCell>
        <mxCell id="rhJvBl-y4j_txT4zSDau-5" style="edgeStyle=orthogonalEdgeStyle;rounded=0;orthogonalLoop=1;jettySize=auto;html=1;exitX=1;exitY=0.5;exitDx=0;exitDy=0;" parent="WIyWlLk6GJQsqaUBKTNV-1" source="WIyWlLk6GJQsqaUBKTNV-6" target="WIyWlLk6GJQsqaUBKTNV-7" edge="1">
          <mxGeometry relative="1" as="geometry">
            <mxPoint x="280" y="210" as="sourcePoint" />
          </mxGeometry>
        </mxCell>
        <mxCell id="rhJvBl-y4j_txT4zSDau-6" value="Yes" style="edgeLabel;html=1;align=center;verticalAlign=middle;resizable=0;points=[];" parent="rhJvBl-y4j_txT4zSDau-5" vertex="1" connectable="0">
          <mxGeometry x="0.131" relative="1" as="geometry">
            <mxPoint as="offset" />
          </mxGeometry>
        </mxCell>
        <mxCell id="WIyWlLk6GJQsqaUBKTNV-6" value="&lt;div&gt;Has an&amp;nbsp;&lt;/div&gt;&lt;div&gt;account ?&lt;/div&gt;" style="rhombus;whiteSpace=wrap;html=1;shadow=0;fontFamily=Helvetica;fontSize=12;align=center;strokeWidth=1;spacing=6;spacingTop=-4;" parent="WIyWlLk6GJQsqaUBKTNV-1" vertex="1">
          <mxGeometry x="330" y="180" width="100" height="80" as="geometry" />
        </mxCell>
        <mxCell id="rhJvBl-y4j_txT4zSDau-69" style="edgeStyle=orthogonalEdgeStyle;rounded=0;orthogonalLoop=1;jettySize=auto;html=1;exitX=0.5;exitY=0;exitDx=0;exitDy=0;entryX=0.5;entryY=1;entryDx=0;entryDy=0;" parent="WIyWlLk6GJQsqaUBKTNV-1" source="WIyWlLk6GJQsqaUBKTNV-7" target="rhJvBl-y4j_txT4zSDau-14" edge="1">
          <mxGeometry relative="1" as="geometry" />
        </mxCell>
        <mxCell id="rhJvBl-y4j_txT4zSDau-70" style="edgeStyle=orthogonalEdgeStyle;rounded=0;orthogonalLoop=1;jettySize=auto;html=1;exitX=0.5;exitY=1;exitDx=0;exitDy=0;entryX=0.5;entryY=0;entryDx=0;entryDy=0;" parent="WIyWlLk6GJQsqaUBKTNV-1" source="WIyWlLk6GJQsqaUBKTNV-7" target="rhJvBl-y4j_txT4zSDau-53" edge="1">
          <mxGeometry relative="1" as="geometry" />
        </mxCell>
        <mxCell id="WIyWlLk6GJQsqaUBKTNV-7" value="Login" style="rounded=1;whiteSpace=wrap;html=1;fontSize=12;glass=0;strokeWidth=1;shadow=0;" parent="WIyWlLk6GJQsqaUBKTNV-1" vertex="1">
          <mxGeometry x="610" y="200" width="120" height="40" as="geometry" />
        </mxCell>
        <mxCell id="rhJvBl-y4j_txT4zSDau-0" value="Ask the admin to create an account" style="rounded=1;whiteSpace=wrap;html=1;" parent="WIyWlLk6GJQsqaUBKTNV-1" vertex="1">
          <mxGeometry x="240" y="320" width="120" height="40" as="geometry" />
        </mxCell>
        <mxCell id="rhJvBl-y4j_txT4zSDau-3" style="edgeStyle=orthogonalEdgeStyle;rounded=0;orthogonalLoop=1;jettySize=auto;html=1;exitX=0.5;exitY=1;exitDx=0;exitDy=0;" parent="WIyWlLk6GJQsqaUBKTNV-1" source="rhJvBl-y4j_txT4zSDau-0" target="rhJvBl-y4j_txT4zSDau-0" edge="1">
          <mxGeometry relative="1" as="geometry" />
        </mxCell>
        <mxCell id="rhJvBl-y4j_txT4zSDau-9" value="&lt;h1 style=&quot;margin-top: 0px;&quot;&gt;Account creation&lt;br&gt;&lt;/h1&gt;&lt;p&gt;An account can only be created by the admin of the company.&lt;/p&gt;&lt;p&gt;The password is created automatically and sent by email to the user.&lt;br&gt;&lt;/p&gt;&lt;p&gt;&lt;br&gt;&lt;/p&gt;" style="text;html=1;whiteSpace=wrap;overflow=hidden;rounded=0;" parent="WIyWlLk6GJQsqaUBKTNV-1" vertex="1">
          <mxGeometry y="320" width="220" height="120" as="geometry" />
        </mxCell>
        <mxCell id="rhJvBl-y4j_txT4zSDau-10" value="&lt;h1 style=&quot;margin-top: 0px;&quot;&gt;Login&lt;/h1&gt;&lt;p&gt;A user can log in with his company email address and his password.&lt;br&gt;&lt;/p&gt;" style="text;html=1;whiteSpace=wrap;overflow=hidden;rounded=0;" parent="WIyWlLk6GJQsqaUBKTNV-1" vertex="1">
          <mxGeometry x="827" y="200" width="220" height="120" as="geometry" />
        </mxCell>
        <mxCell id="rhJvBl-y4j_txT4zSDau-13" value="&lt;h1 style=&quot;margin-top: 0px;&quot;&gt;Reset password&lt;br&gt;&lt;/h1&gt;&lt;p&gt;The user can ask for a password reset via his company email address.&lt;br&gt;&lt;/p&gt;" style="text;html=1;whiteSpace=wrap;overflow=hidden;rounded=0;" parent="WIyWlLk6GJQsqaUBKTNV-1" vertex="1">
          <mxGeometry x="827" y="40" width="220" height="120" as="geometry" />
        </mxCell>
        <mxCell id="rhJvBl-y4j_txT4zSDau-14" value="&lt;div&gt;Request a password&lt;/div&gt;&lt;div&gt;reset&lt;br&gt;&lt;/div&gt;" style="rounded=1;whiteSpace=wrap;html=1;" parent="WIyWlLk6GJQsqaUBKTNV-1" vertex="1">
          <mxGeometry x="610" y="40" width="120" height="40" as="geometry" />
        </mxCell>
        <mxCell id="rhJvBl-y4j_txT4zSDau-17" value="&lt;h1 style=&quot;margin-top: 0px;&quot;&gt;The user&lt;br&gt;&lt;/h1&gt;&lt;p&gt;A user is part of a company and has a company email address.&lt;/p&gt;&lt;p&gt;This address is linked to a MGB company account.&lt;/p&gt;" style="text;html=1;whiteSpace=wrap;overflow=hidden;rounded=0;" parent="WIyWlLk6GJQsqaUBKTNV-1" vertex="1">
          <mxGeometry y="40" width="220" height="120" as="geometry" />
        </mxCell>
        <mxCell id="rhJvBl-y4j_txT4zSDau-34" style="edgeStyle=orthogonalEdgeStyle;rounded=0;orthogonalLoop=1;jettySize=auto;html=1;exitX=0.5;exitY=1;exitDx=0;exitDy=0;entryX=0.5;entryY=0;entryDx=0;entryDy=0;" parent="WIyWlLk6GJQsqaUBKTNV-1" source="rhJvBl-y4j_txT4zSDau-25" target="rhJvBl-y4j_txT4zSDau-26" edge="1">
          <mxGeometry relative="1" as="geometry" />
        </mxCell>
        <mxCell id="rhJvBl-y4j_txT4zSDau-25" value="&lt;div&gt;Company&lt;/div&gt;" style="rounded=1;whiteSpace=wrap;html=1;" parent="WIyWlLk6GJQsqaUBKTNV-1" vertex="1">
          <mxGeometry x="-740" y="40" width="120" height="40" as="geometry" />
        </mxCell>
        <mxCell id="rhJvBl-y4j_txT4zSDau-28" style="edgeStyle=orthogonalEdgeStyle;rounded=0;orthogonalLoop=1;jettySize=auto;html=1;exitX=0;exitY=0.5;exitDx=0;exitDy=0;entryX=0.5;entryY=0;entryDx=0;entryDy=0;" parent="WIyWlLk6GJQsqaUBKTNV-1" source="rhJvBl-y4j_txT4zSDau-26" target="rhJvBl-y4j_txT4zSDau-27" edge="1">
          <mxGeometry relative="1" as="geometry" />
        </mxCell>
        <mxCell id="rhJvBl-y4j_txT4zSDau-29" value="No" style="edgeLabel;html=1;align=center;verticalAlign=middle;resizable=0;points=[];" parent="rhJvBl-y4j_txT4zSDau-28" vertex="1" connectable="0">
          <mxGeometry x="0.3034" y="-3" relative="1" as="geometry">
            <mxPoint as="offset" />
          </mxGeometry>
        </mxCell>
        <mxCell id="rhJvBl-y4j_txT4zSDau-35" style="edgeStyle=orthogonalEdgeStyle;rounded=0;orthogonalLoop=1;jettySize=auto;html=1;exitX=1;exitY=0.5;exitDx=0;exitDy=0;entryX=0.5;entryY=0;entryDx=0;entryDy=0;" parent="WIyWlLk6GJQsqaUBKTNV-1" source="rhJvBl-y4j_txT4zSDau-26" target="rhJvBl-y4j_txT4zSDau-32" edge="1">
          <mxGeometry relative="1" as="geometry" />
        </mxCell>
        <mxCell id="rhJvBl-y4j_txT4zSDau-38" value="Yes" style="edgeLabel;html=1;align=center;verticalAlign=middle;resizable=0;points=[];" parent="rhJvBl-y4j_txT4zSDau-35" vertex="1" connectable="0">
          <mxGeometry x="-0.138" relative="1" as="geometry">
            <mxPoint as="offset" />
          </mxGeometry>
        </mxCell>
        <mxCell id="rhJvBl-y4j_txT4zSDau-26" value="&lt;div&gt;Has an &lt;br&gt;&lt;/div&gt;&lt;div&gt;account ?&lt;br&gt;&lt;/div&gt;" style="rhombus;whiteSpace=wrap;html=1;" parent="WIyWlLk6GJQsqaUBKTNV-1" vertex="1">
          <mxGeometry x="-730" y="180" width="100" height="80" as="geometry" />
        </mxCell>
        <mxCell id="rhJvBl-y4j_txT4zSDau-27" value="Contact sales" style="rounded=1;whiteSpace=wrap;html=1;" parent="WIyWlLk6GJQsqaUBKTNV-1" vertex="1">
          <mxGeometry x="-850" y="320" width="120" height="40" as="geometry" />
        </mxCell>
        <mxCell id="rhJvBl-y4j_txT4zSDau-36" style="edgeStyle=orthogonalEdgeStyle;rounded=0;orthogonalLoop=1;jettySize=auto;html=1;exitX=0.5;exitY=1;exitDx=0;exitDy=0;entryX=0.5;entryY=0;entryDx=0;entryDy=0;" parent="WIyWlLk6GJQsqaUBKTNV-1" source="rhJvBl-y4j_txT4zSDau-32" target="rhJvBl-y4j_txT4zSDau-33" edge="1">
          <mxGeometry relative="1" as="geometry" />
        </mxCell>
        <mxCell id="rhJvBl-y4j_txT4zSDau-39" value="Yes" style="edgeLabel;html=1;align=center;verticalAlign=middle;resizable=0;points=[];" parent="rhJvBl-y4j_txT4zSDau-36" vertex="1" connectable="0">
          <mxGeometry x="0.1316" relative="1" as="geometry">
            <mxPoint as="offset" />
          </mxGeometry>
        </mxCell>
        <mxCell id="rhJvBl-y4j_txT4zSDau-41" style="edgeStyle=orthogonalEdgeStyle;rounded=0;orthogonalLoop=1;jettySize=auto;html=1;exitX=1;exitY=0.5;exitDx=0;exitDy=0;entryX=0;entryY=0.5;entryDx=0;entryDy=0;" parent="WIyWlLk6GJQsqaUBKTNV-1" source="rhJvBl-y4j_txT4zSDau-32" target="rhJvBl-y4j_txT4zSDau-40" edge="1">
          <mxGeometry relative="1" as="geometry" />
        </mxCell>
        <mxCell id="rhJvBl-y4j_txT4zSDau-42" value="No" style="edgeLabel;html=1;align=center;verticalAlign=middle;resizable=0;points=[];" parent="rhJvBl-y4j_txT4zSDau-41" vertex="1" connectable="0">
          <mxGeometry x="0.1078" y="-1" relative="1" as="geometry">
            <mxPoint as="offset" />
          </mxGeometry>
        </mxCell>
        <mxCell id="rhJvBl-y4j_txT4zSDau-32" value="Is admin ?" style="rhombus;whiteSpace=wrap;html=1;" parent="WIyWlLk6GJQsqaUBKTNV-1" vertex="1">
          <mxGeometry x="-610" y="320" width="100" height="80" as="geometry" />
        </mxCell>
        <mxCell id="rhJvBl-y4j_txT4zSDau-33" value="Login as admin" style="rounded=1;whiteSpace=wrap;html=1;" parent="WIyWlLk6GJQsqaUBKTNV-1" vertex="1">
          <mxGeometry x="-620" y="510" width="120" height="45" as="geometry" />
        </mxCell>
        <mxCell id="rhJvBl-y4j_txT4zSDau-37" value="&lt;h1 style=&quot;margin-top: 0px;&quot;&gt;Company acount&lt;br&gt;&lt;/h1&gt;&lt;p&gt;Only sales can create a company account.&lt;br&gt;&lt;/p&gt;" style="text;html=1;whiteSpace=wrap;overflow=hidden;rounded=0;" parent="WIyWlLk6GJQsqaUBKTNV-1" vertex="1">
          <mxGeometry x="-1080" y="320" width="220" height="120" as="geometry" />
        </mxCell>
        <mxCell id="rhJvBl-y4j_txT4zSDau-47" style="edgeStyle=orthogonalEdgeStyle;rounded=0;orthogonalLoop=1;jettySize=auto;html=1;exitX=1;exitY=0.5;exitDx=0;exitDy=0;entryX=0.5;entryY=0;entryDx=0;entryDy=0;dashed=1;" parent="WIyWlLk6GJQsqaUBKTNV-1" source="rhJvBl-y4j_txT4zSDau-40" target="WIyWlLk6GJQsqaUBKTNV-3" edge="1">
          <mxGeometry relative="1" as="geometry">
            <Array as="points">
              <mxPoint x="-80" y="360" />
              <mxPoint x="-80" y="20" />
              <mxPoint x="380" y="20" />
            </Array>
          </mxGeometry>
        </mxCell>
        <mxCell id="rhJvBl-y4j_txT4zSDau-40" value="Login as user" style="rounded=1;whiteSpace=wrap;html=1;" parent="WIyWlLk6GJQsqaUBKTNV-1" vertex="1">
          <mxGeometry x="-370" y="340" width="120" height="40" as="geometry" />
        </mxCell>
        <mxCell id="rhJvBl-y4j_txT4zSDau-43" value="&lt;h1 style=&quot;margin-top: 0px;&quot;&gt;The company&lt;br&gt;&lt;/h1&gt;&lt;p&gt;&lt;br&gt;&lt;/p&gt;" style="text;html=1;whiteSpace=wrap;overflow=hidden;rounded=0;" parent="WIyWlLk6GJQsqaUBKTNV-1" vertex="1">
          <mxGeometry x="-1007" y="40" width="180" height="120" as="geometry" />
        </mxCell>
        <mxCell id="rhJvBl-y4j_txT4zSDau-58" style="edgeStyle=orthogonalEdgeStyle;rounded=0;orthogonalLoop=1;jettySize=auto;html=1;exitX=1;exitY=0.5;exitDx=0;exitDy=0;entryX=0;entryY=0.5;entryDx=0;entryDy=0;" parent="WIyWlLk6GJQsqaUBKTNV-1" source="rhJvBl-y4j_txT4zSDau-53" target="rhJvBl-y4j_txT4zSDau-57" edge="1">
          <mxGeometry relative="1" as="geometry" />
        </mxCell>
        <mxCell id="rhJvBl-y4j_txT4zSDau-67" value="No" style="edgeLabel;html=1;align=center;verticalAlign=middle;resizable=0;points=[];" parent="rhJvBl-y4j_txT4zSDau-58" vertex="1" connectable="0">
          <mxGeometry x="0.0027" relative="1" as="geometry">
            <mxPoint as="offset" />
          </mxGeometry>
        </mxCell>
        <mxCell id="rhJvBl-y4j_txT4zSDau-61" style="edgeStyle=orthogonalEdgeStyle;rounded=0;orthogonalLoop=1;jettySize=auto;html=1;exitX=0.5;exitY=1;exitDx=0;exitDy=0;entryX=0.5;entryY=0;entryDx=0;entryDy=0;" parent="WIyWlLk6GJQsqaUBKTNV-1" source="rhJvBl-y4j_txT4zSDau-53" target="rhJvBl-y4j_txT4zSDau-55" edge="1">
          <mxGeometry relative="1" as="geometry" />
        </mxCell>
        <mxCell id="rhJvBl-y4j_txT4zSDau-77" value="Yes" style="edgeLabel;html=1;align=center;verticalAlign=middle;resizable=0;points=[];" parent="rhJvBl-y4j_txT4zSDau-61" vertex="1" connectable="0">
          <mxGeometry x="0.0153" y="1" relative="1" as="geometry">
            <mxPoint as="offset" />
          </mxGeometry>
        </mxCell>
        <mxCell id="rhJvBl-y4j_txT4zSDau-53" value="&lt;div&gt;Login&amp;nbsp;&lt;/div&gt;&lt;div&gt;successful ?&lt;/div&gt;" style="rhombus;whiteSpace=wrap;html=1;" parent="WIyWlLk6GJQsqaUBKTNV-1" vertex="1">
          <mxGeometry x="620" y="420" width="100" height="80" as="geometry" />
        </mxCell>
        <mxCell id="rhJvBl-y4j_txT4zSDau-84" style="edgeStyle=orthogonalEdgeStyle;rounded=0;orthogonalLoop=1;jettySize=auto;html=1;exitX=0.5;exitY=1;exitDx=0;exitDy=0;entryX=0.5;entryY=0;entryDx=0;entryDy=0;" parent="WIyWlLk6GJQsqaUBKTNV-1" source="rhJvBl-y4j_txT4zSDau-55" target="rhJvBl-y4j_txT4zSDau-80" edge="1">
          <mxGeometry relative="1" as="geometry" />
        </mxCell>
        <mxCell id="rhJvBl-y4j_txT4zSDau-55" value="User dashboard" style="rounded=1;whiteSpace=wrap;html=1;" parent="WIyWlLk6GJQsqaUBKTNV-1" vertex="1">
          <mxGeometry x="610" y="660" width="120" height="40" as="geometry" />
        </mxCell>
        <mxCell id="rhJvBl-y4j_txT4zSDau-63" style="edgeStyle=orthogonalEdgeStyle;rounded=0;orthogonalLoop=1;jettySize=auto;html=1;exitX=1;exitY=0.5;exitDx=0;exitDy=0;entryX=0;entryY=0.5;entryDx=0;entryDy=0;" parent="WIyWlLk6GJQsqaUBKTNV-1" source="rhJvBl-y4j_txT4zSDau-57" target="rhJvBl-y4j_txT4zSDau-62" edge="1">
          <mxGeometry relative="1" as="geometry" />
        </mxCell>
        <mxCell id="rhJvBl-y4j_txT4zSDau-65" value="&lt;div&gt;Yes&lt;/div&gt;" style="edgeLabel;html=1;align=center;verticalAlign=middle;resizable=0;points=[];" parent="rhJvBl-y4j_txT4zSDau-63" vertex="1" connectable="0">
          <mxGeometry x="-0.1625" y="1" relative="1" as="geometry">
            <mxPoint as="offset" />
          </mxGeometry>
        </mxCell>
        <mxCell id="rhJvBl-y4j_txT4zSDau-72" style="edgeStyle=orthogonalEdgeStyle;rounded=0;orthogonalLoop=1;jettySize=auto;html=1;exitX=0.5;exitY=0;exitDx=0;exitDy=0;entryX=0.75;entryY=1;entryDx=0;entryDy=0;" parent="WIyWlLk6GJQsqaUBKTNV-1" source="rhJvBl-y4j_txT4zSDau-57" target="WIyWlLk6GJQsqaUBKTNV-7" edge="1">
          <mxGeometry relative="1" as="geometry" />
        </mxCell>
        <mxCell id="rhJvBl-y4j_txT4zSDau-75" value="No" style="edgeLabel;html=1;align=center;verticalAlign=middle;resizable=0;points=[];" parent="rhJvBl-y4j_txT4zSDau-72" vertex="1" connectable="0">
          <mxGeometry x="-0.7854" y="-2" relative="1" as="geometry">
            <mxPoint as="offset" />
          </mxGeometry>
        </mxCell>
        <mxCell id="rhJvBl-y4j_txT4zSDau-57" value="Is it the 3rd attempt ?" style="rhombus;whiteSpace=wrap;html=1;" parent="WIyWlLk6GJQsqaUBKTNV-1" vertex="1">
          <mxGeometry x="880" y="420" width="100" height="80" as="geometry" />
        </mxCell>
        <mxCell id="rhJvBl-y4j_txT4zSDau-74" style="edgeStyle=orthogonalEdgeStyle;rounded=0;orthogonalLoop=1;jettySize=auto;html=1;exitX=1;exitY=0.5;exitDx=0;exitDy=0;entryX=0.75;entryY=1;entryDx=0;entryDy=0;" parent="WIyWlLk6GJQsqaUBKTNV-1" source="rhJvBl-y4j_txT4zSDau-62" target="WIyWlLk6GJQsqaUBKTNV-7" edge="1">
          <mxGeometry relative="1" as="geometry">
            <Array as="points">
              <mxPoint x="1240" y="460" />
              <mxPoint x="1240" y="330" />
              <mxPoint x="700" y="330" />
            </Array>
          </mxGeometry>
        </mxCell>
        <mxCell id="rhJvBl-y4j_txT4zSDau-62" value="Wait for 2 minutes" style="rounded=1;whiteSpace=wrap;html=1;" parent="WIyWlLk6GJQsqaUBKTNV-1" vertex="1">
          <mxGeometry x="1100" y="440" width="120" height="40" as="geometry" />
        </mxCell>
        <mxCell id="rhJvBl-y4j_txT4zSDau-76" value="&lt;h1 style=&quot;margin-top: 0px;&quot;&gt;Login security&lt;br&gt;&lt;/h1&gt;&lt;p&gt;A delay after 3 tentattives to avoid Brute force attempts.&lt;br&gt;&lt;/p&gt;" style="text;html=1;whiteSpace=wrap;overflow=hidden;rounded=0;" parent="WIyWlLk6GJQsqaUBKTNV-1" vertex="1">
          <mxGeometry x="1100" y="500" width="180" height="120" as="geometry" />
        </mxCell>
        <mxCell id="rhJvBl-y4j_txT4zSDau-78" value="Exercise now" style="rounded=1;whiteSpace=wrap;html=1;" parent="WIyWlLk6GJQsqaUBKTNV-1" vertex="1">
          <mxGeometry x="870" y="970" width="120" height="40" as="geometry" />
        </mxCell>
        <mxCell id="rhJvBl-y4j_txT4zSDau-90" style="edgeStyle=orthogonalEdgeStyle;rounded=0;orthogonalLoop=1;jettySize=auto;html=1;exitX=1;exitY=0.5;exitDx=0;exitDy=0;entryX=0;entryY=0.5;entryDx=0;entryDy=0;" parent="WIyWlLk6GJQsqaUBKTNV-1" source="rhJvBl-y4j_txT4zSDau-79" target="rhJvBl-y4j_txT4zSDau-89" edge="1">
          <mxGeometry relative="1" as="geometry" />
        </mxCell>
        <mxCell id="rhJvBl-y4j_txT4zSDau-79" value="Plan exercice" style="rounded=1;whiteSpace=wrap;html=1;" parent="WIyWlLk6GJQsqaUBKTNV-1" vertex="1">
          <mxGeometry x="870" y="1090" width="120" height="40" as="geometry" />
        </mxCell>
        <mxCell id="rhJvBl-y4j_txT4zSDau-82" style="edgeStyle=orthogonalEdgeStyle;rounded=0;orthogonalLoop=1;jettySize=auto;html=1;exitX=0.5;exitY=1;exitDx=0;exitDy=0;entryX=0.5;entryY=0;entryDx=0;entryDy=0;" parent="WIyWlLk6GJQsqaUBKTNV-1" source="rhJvBl-y4j_txT4zSDau-80" target="rhJvBl-y4j_txT4zSDau-81" edge="1">
          <mxGeometry relative="1" as="geometry" />
        </mxCell>
        <mxCell id="rhJvBl-y4j_txT4zSDau-83" value="Yes" style="edgeLabel;html=1;align=center;verticalAlign=middle;resizable=0;points=[];" parent="rhJvBl-y4j_txT4zSDau-82" vertex="1" connectable="0">
          <mxGeometry x="-0.1" y="1" relative="1" as="geometry">
            <mxPoint as="offset" />
          </mxGeometry>
        </mxCell>
        <mxCell id="rhJvBl-y4j_txT4zSDau-80" value="&lt;div&gt;I want to&amp;nbsp;&lt;/div&gt;&lt;div&gt;exercise ?&lt;/div&gt;" style="rhombus;whiteSpace=wrap;html=1;" parent="WIyWlLk6GJQsqaUBKTNV-1" vertex="1">
          <mxGeometry x="620" y="790" width="100" height="80" as="geometry" />
        </mxCell>
        <mxCell id="rhJvBl-y4j_txT4zSDau-85" style="edgeStyle=orthogonalEdgeStyle;rounded=0;orthogonalLoop=1;jettySize=auto;html=1;exitX=0.5;exitY=1;exitDx=0;exitDy=0;entryX=0;entryY=0.5;entryDx=0;entryDy=0;" parent="WIyWlLk6GJQsqaUBKTNV-1" source="rhJvBl-y4j_txT4zSDau-81" target="rhJvBl-y4j_txT4zSDau-79" edge="1">
          <mxGeometry relative="1" as="geometry" />
        </mxCell>
        <mxCell id="rhJvBl-y4j_txT4zSDau-88" value="No" style="edgeLabel;html=1;align=center;verticalAlign=middle;resizable=0;points=[];" parent="rhJvBl-y4j_txT4zSDau-85" vertex="1" connectable="0">
          <mxGeometry x="0.2279" y="-1" relative="1" as="geometry">
            <mxPoint as="offset" />
          </mxGeometry>
        </mxCell>
        <mxCell id="rhJvBl-y4j_txT4zSDau-86" style="edgeStyle=orthogonalEdgeStyle;rounded=0;orthogonalLoop=1;jettySize=auto;html=1;exitX=1;exitY=0.5;exitDx=0;exitDy=0;entryX=0;entryY=0.5;entryDx=0;entryDy=0;" parent="WIyWlLk6GJQsqaUBKTNV-1" source="rhJvBl-y4j_txT4zSDau-81" target="rhJvBl-y4j_txT4zSDau-78" edge="1">
          <mxGeometry relative="1" as="geometry" />
        </mxCell>
        <mxCell id="rhJvBl-y4j_txT4zSDau-87" value="Yes" style="edgeLabel;html=1;align=center;verticalAlign=middle;resizable=0;points=[];" parent="rhJvBl-y4j_txT4zSDau-86" vertex="1" connectable="0">
          <mxGeometry x="-0.2109" y="1" relative="1" as="geometry">
            <mxPoint as="offset" />
          </mxGeometry>
        </mxCell>
        <mxCell id="rhJvBl-y4j_txT4zSDau-81" value="Now ?" style="rhombus;whiteSpace=wrap;html=1;" parent="WIyWlLk6GJQsqaUBKTNV-1" vertex="1">
          <mxGeometry x="620" y="950" width="100" height="80" as="geometry" />
        </mxCell>
        <mxCell id="rhJvBl-y4j_txT4zSDau-89" value="Calendar " style="rounded=1;whiteSpace=wrap;html=1;" parent="WIyWlLk6GJQsqaUBKTNV-1" vertex="1">
          <mxGeometry x="1130" y="1090" width="120" height="40" as="geometry" />
        </mxCell>
        <mxCell id="rhJvBl-y4j_txT4zSDau-116" value="&lt;h1 style=&quot;margin-top: 0px;&quot;&gt;User&lt;br&gt;&lt;/h1&gt;&lt;p&gt;- ID&lt;/p&gt;&lt;p&gt;- Company ID&lt;/p&gt;&lt;p&gt;- Role ID&lt;/p&gt;&lt;p&gt;- First name&lt;br&gt;&lt;/p&gt;&lt;p&gt;- Last name&lt;/p&gt;&lt;p&gt;- Email&lt;br&gt;&lt;/p&gt;&lt;p&gt;- Password&lt;/p&gt;&lt;p&gt;- Created at&lt;br&gt;&lt;/p&gt;&lt;p&gt;- Updated at&lt;/p&gt;" style="text;html=1;whiteSpace=wrap;overflow=hidden;rounded=0;" parent="WIyWlLk6GJQsqaUBKTNV-1" vertex="1">
          <mxGeometry x="1654" y="440" width="226" height="280" as="geometry" />
        </mxCell>
        <mxCell id="rhJvBl-y4j_txT4zSDau-117" value="&lt;h1 style=&quot;margin-top: 0px;&quot;&gt;Break&lt;/h1&gt;&lt;p&gt;- ID&lt;/p&gt;&lt;p&gt;- User ID&lt;/p&gt;&lt;p&gt;- Type ID&lt;/p&gt;&lt;p&gt;- Duration&lt;/p&gt;&lt;p&gt;- Intensity&lt;/p&gt;&lt;p&gt;- Stress level&lt;/p&gt;&lt;p&gt;- Feeling&lt;/p&gt;&lt;p&gt;- Created at&lt;/p&gt;&lt;p&gt;- Updated at&lt;/p&gt;" style="text;html=1;whiteSpace=wrap;overflow=hidden;rounded=0;" parent="WIyWlLk6GJQsqaUBKTNV-1" vertex="1">
          <mxGeometry x="1960" y="440" width="240" height="280" as="geometry" />
        </mxCell>
        <mxCell id="3ZJQ9CBzUht7Ke4iBaoX-0" value="Data &amp;nbsp;structure" style="text;html=1;align=left;verticalAlign=middle;whiteSpace=wrap;rounded=0;fontStyle=1;fontSize=30;" vertex="1" parent="WIyWlLk6GJQsqaUBKTNV-1">
          <mxGeometry x="1654" width="266" height="40" as="geometry" />
        </mxCell>
        <mxCell id="3ZJQ9CBzUht7Ke4iBaoX-1" value="&lt;h1 style=&quot;margin-top: 0px;&quot;&gt;Company&lt;/h1&gt;&lt;p&gt;- ID&lt;/p&gt;&lt;p&gt;- Name&lt;/p&gt;&lt;p&gt;- Created at&lt;br&gt;&lt;/p&gt;&lt;p&gt;- Updated at&lt;/p&gt;" style="text;html=1;whiteSpace=wrap;overflow=hidden;rounded=0;" vertex="1" parent="WIyWlLk6GJQsqaUBKTNV-1">
          <mxGeometry x="1654" y="80" width="226" height="240" as="geometry" />
        </mxCell>
        <mxCell id="3ZJQ9CBzUht7Ke4iBaoX-2" value="&lt;h1 style=&quot;margin-top: 0px;&quot;&gt;Subscription&lt;/h1&gt;&lt;p&gt;- ID&lt;/p&gt;&lt;p&gt;- Company ID&lt;/p&gt;&lt;p&gt;- Type&lt;/p&gt;&lt;p&gt;- Start date&lt;/p&gt;&lt;p&gt;- End date&lt;/p&gt;&lt;p&gt;- Is paid&lt;/p&gt;&lt;p&gt;- Payment&lt;/p&gt;&lt;p&gt;- Created at&lt;br&gt;&lt;/p&gt;&lt;p&gt;- Updated at&lt;/p&gt;" style="text;html=1;whiteSpace=wrap;overflow=hidden;rounded=0;" vertex="1" parent="WIyWlLk6GJQsqaUBKTNV-1">
          <mxGeometry x="1960" y="80" width="180" height="360" as="geometry" />
        </mxCell>
        <mxCell id="3ZJQ9CBzUht7Ke4iBaoX-4" value="&lt;h1 style=&quot;margin-top: 0px;&quot;&gt;Video&lt;/h1&gt;&lt;p&gt;- ID&lt;/p&gt;&lt;p&gt;- Storage link&lt;/p&gt;&lt;p&gt;- Tags&lt;/p&gt;&lt;p&gt;- Created at&lt;/p&gt;&lt;p&gt;- Updated at&lt;/p&gt;" style="text;html=1;whiteSpace=wrap;overflow=hidden;rounded=0;" vertex="1" parent="WIyWlLk6GJQsqaUBKTNV-1">
          <mxGeometry x="2240" y="80" width="240" height="280" as="geometry" />
        </mxCell>
        <mxCell id="3ZJQ9CBzUht7Ke4iBaoX-5" value="&lt;h1 style=&quot;margin-top: 0px;&quot;&gt;Role&amp;nbsp;&lt;/h1&gt;&lt;h1 style=&quot;margin-top: 0px;&quot;&gt;&lt;span style=&quot;font-size: 12px; font-weight: normal;&quot;&gt;[ Employee, Admin ]&lt;/span&gt;&lt;/h1&gt;&lt;p&gt;- ID&lt;/p&gt;&lt;p&gt;- Name&lt;/p&gt;&lt;p&gt;- Created at&lt;/p&gt;&lt;p&gt;- Updated at&lt;/p&gt;" style="text;html=1;whiteSpace=wrap;overflow=hidden;rounded=0;" vertex="1" parent="WIyWlLk6GJQsqaUBKTNV-1">
          <mxGeometry x="1654" y="840" width="226" height="240" as="geometry" />
        </mxCell>
        <mxCell id="3ZJQ9CBzUht7Ke4iBaoX-6" value="&lt;h1 style=&quot;margin-top: 0px;&quot;&gt;Break Type&lt;/h1&gt;&lt;p&gt;[.Active, Stretching, Mindfulness ]&lt;/p&gt;&lt;p&gt;- ID&lt;/p&gt;&lt;p&gt;- Created at&lt;/p&gt;&lt;p&gt;- Updated at&lt;/p&gt;&lt;p&gt;&lt;br&gt;&lt;/p&gt;" style="text;html=1;whiteSpace=wrap;overflow=hidden;rounded=0;" vertex="1" parent="WIyWlLk6GJQsqaUBKTNV-1">
          <mxGeometry x="1960" y="840" width="240" height="240" as="geometry" />
        </mxCell>
        <mxCell id="3ZJQ9CBzUht7Ke4iBaoX-7" value="&lt;h1 style=&quot;margin-top: 0px;&quot;&gt;Break video&lt;/h1&gt;&lt;p&gt;- ID&lt;/p&gt;&lt;p&gt;- Break ID&lt;/p&gt;&lt;p&gt;- Video IDs&lt;/p&gt;&lt;p&gt;- Created at&lt;/p&gt;&lt;p&gt;- Updated at&lt;/p&gt;" style="text;html=1;whiteSpace=wrap;overflow=hidden;rounded=0;" vertex="1" parent="WIyWlLk6GJQsqaUBKTNV-1">
          <mxGeometry x="2240" y="440" width="240" height="280" as="geometry" />
        </mxCell>
      </root>
    </mxGraphModel>
  </diagram>
</mxfile>
